<svg width="800" height="800" viewBox="0 0 800 800" fill="none" xmlns="http://www.w3.org/2000/svg">
<g clip-path="url(#clip0_927_7)">
<path fill-rule="evenodd" clip-rule="evenodd" d="M720 667.009C720 688 700.28 704.762 678.2 704.762H558.2C536.16 704.762 520 688 520 667.009V552.724C520 531.733 536.16 514.285 558.2 514.285H678.2C700.28 514.285 720 531.733 720 552.724V667.009ZM678.2 438.095H558.2C491.92 438.095 440 489.6 440 552.724V667.009C440 730.133 491.92 780.952 558.2 780.952H678.2C744.48 780.952 800 730.133 800 667.009V552.724C800 489.6 744.48 438.095 678.2 438.095ZM280 667.009C280 688 260.28 704.762 238.2 704.762H118.2C96.1601 704.762 79.9999 688 79.9999 667.009V552.724C79.9999 531.733 96.1601 514.285 118.2 514.285H238.2C260.28 514.285 280 531.733 280 552.724V667.009ZM238.2 438.095H118.2C51.9201 438.095 0 489.6 0 552.724V667.009C0 730.133 51.9201 780.952 118.2 780.952H238.2C304.48 780.952 360 730.133 360 667.009V552.724C360 489.6 304.48 438.095 238.2 438.095ZM720 247.962C720 268.952 700.28 285.714 678.2 285.714H558.2C536.16 285.714 520 268.952 520 247.962V133.676C520 112.685 536.16 95.2378 558.2 95.2378H678.2C700.28 95.2378 720 112.685 720 133.676V247.962ZM678.2 19.0474H558.2C491.92 19.0474 440 70.5521 440 133.676V247.962C440 311.085 491.92 361.905 558.2 361.905H678.2C744.48 361.905 800 311.085 800 247.962V133.676C800 70.5521 744.48 19.0474 678.2 19.0474ZM280 247.962C280 268.952 260.28 285.714 238.2 285.714H118.2C96.1601 285.714 79.9999 268.952 79.9999 247.962V133.676C79.9999 112.685 96.1601 95.2378 118.2 95.2378H238.2C260.28 95.2378 280 112.685 280 133.676V247.962ZM238.2 19.0474H118.2C51.9201 19.0474 0 70.5521 0 133.676V247.962C0 311.085 51.9201 361.905 118.2 361.905H238.2C304.48 361.905 360 311.085 360 247.962V133.676C360 70.5521 304.48 19.0474 238.2 19.0474Z" fill="#d3d3d3"/>
</g>
<defs>
<clipPath id="clip0_927_7">
<rect width="800" height="800" fill="white"/>
</clipPath>
</defs>
</svg>
