<svg width="800" height="800" viewBox="0 0 800 800" fill="none" xmlns="http://www.w3.org/2000/svg">
<g clip-path="url(#clip0_927_2)">
<path fill-rule="evenodd" clip-rule="evenodd" d="M662.502 719.999H137.527C109.271 719.999 88.4061 692.119 99.0632 666.479C148.511 547.919 264.677 479.999 399.994 479.999C535.352 479.999 651.518 547.919 700.966 666.479C711.623 692.119 690.758 719.999 662.502 719.999ZM236.667 239.999C236.667 151.759 309.96 79.9994 399.994 79.9994C490.069 79.9994 563.321 151.759 563.321 239.999C563.321 328.239 490.069 399.999 399.994 399.999C309.96 399.999 236.667 328.239 236.667 239.999ZM798.227 705.439C768.542 571.079 675.691 471.918 553.481 426.918C618.24 375.838 656.01 293.237 642.127 202.797C626.039 97.8772 536.944 13.9191 429.393 1.67907C280.929 -15.2409 155.003 97.9594 155.003 239.999C155.003 315.599 190.772 382.958 246.548 426.918C124.297 471.918 31.4865 571.079 1.76096 705.439C-9.01865 754.279 31.1599 799.999 82.1589 799.999H717.829C768.869 799.999 809.047 754.279 798.227 705.439Z" fill="#d3d3d3"/>
</g>
<defs>
<clipPath id="clip0_927_2">
<rect width="800" height="800" fill="white"/>
</clipPath>
</defs>
</svg>
